<svg height="512" viewBox="0 0 64 64" width="512" xmlns="http://www.w3.org/2000/svg"><g id="_43-Css_File" data-name="43-Css File"><path d="m54 64h-44a3 3 0 0 1 -3-3v-48a1 1 0 0 1 .263-.676l11-12a1 1 0 0 1 .737-.324h35a3 3 0 0 1 3 3v58a3 3 0 0 1 -3 3zm-45-50.611v47.611a1 1 0 0 0 1 1h44a1 1 0 0 0 1-1v-58a1 1 0 0 0 -1-1h-34.56z"/><path d="m19 14h-11v-2h10v-11h2v12a1 1 0 0 1 -1 1z"/><path d="m49 18h-2v-2h.865a5.865 5.865 0 0 1 .877-3.977 2.715 2.715 0 0 1 1.258-.868v-.155h2v1a1 1 0 0 1 -1 1 .812.812 0 0 0 -.71.291c-.61.742-.472 2.688-.31 3.514a1 1 0 0 1 -.98 1.195z"/><path d="m52 11h-2v-.155a2.715 2.715 0 0 1 -1.258-.868 5.865 5.865 0 0 1 -.877-3.977h-.865v-2h2a1 1 0 0 1 .98 1.2c-.162.826-.3 2.772.31 3.514a.812.812 0 0 0 .71.286 1 1 0 0 1 1 1z"/><path d="m14 51h-2v-1a1 1 0 0 1 1-1 .81.81 0 0 0 .71-.291c.611-.742.472-2.688.309-3.514a1 1 0 0 1 .981-1.195h2v2h-.865a5.871 5.871 0 0 1 -.877 3.977 2.715 2.715 0 0 1 -1.258.868z"/><path d="m17 58h-2a1 1 0 0 1 -.981-1.2c.163-.826.3-2.772-.309-3.514a.81.81 0 0 0 -.71-.286 1 1 0 0 1 -1-1v-1h2v.155a2.715 2.715 0 0 1 1.258.868 5.871 5.871 0 0 1 .877 3.977h.865z"/><path d="m44 32a5 5 0 1 1 5-5h-2a3 3 0 1 0 -3 3z"/><path d="m44 40a5.006 5.006 0 0 1 -5-5h2a3 3 0 1 0 3-3v-2a5 5 0 0 1 0 10z"/><path d="m32 32a5 5 0 1 1 5-5h-2a3 3 0 1 0 -3 3z"/><path d="m32 40a5.006 5.006 0 0 1 -5-5h2a3 3 0 1 0 3-3v-2a5 5 0 0 1 0 10z"/><path d="m20 40a5.006 5.006 0 0 1 -5-5v-8a5 5 0 0 1 10 0h-2a3 3 0 0 0 -6 0v8a3 3 0 0 0 6 0h2a5.006 5.006 0 0 1 -5 5z"/><path d="m27 14h15v2h-15z"/><path d="m27 10h15v2h-15z"/><path d="m36 6h6v2h-6z"/><path d="m20 46h15v2h-15z"/><path d="m20 50h15v2h-15z"/><path d="m20 54h6v2h-6z"/></g></svg>