<svg id="Icons" height="512" viewBox="0 0 60 60" width="512" xmlns="http://www.w3.org/2000/svg"><path d="m36.891 53.226a.5.5 0 0 1 -.25-.933l14.385-8.306a.5.5 0 0 1 .549.834l-1.49 1.11 1.425-.823a.5.5 0 0 1 .552.831l-1.142.867 1.058-.611a.5.5 0 0 1 .555.828l-.753.581.456-.262a.5.5 0 0 1 .6.794l-2.978 2.843a.473.473 0 0 1 .089.114.5.5 0 0 1 -.182.682l-1.922 1.11a.5.5 0 0 1 -.6-.794l1.884-1.8-3.316 1.915a.5.5 0 0 1 -.556-.828l.755-.583-1.492.861a.5.5 0 0 1 -.552-.831l1.142-.867-1.945 1.123a.5.5 0 0 1 -.549-.834l1.486-1.108-6.962 4.019a.5.5 0 0 1 -.247.068z" fill="#ccd0da"/><path d="m54.763 35.556a.5.5 0 0 1 -.25-.933l3.951-2.281a.5.5 0 0 1 .5.865l-3.951 2.281a.5.5 0 0 1 -.25.068z" fill="#ccd0da"/><path d="m42.926 43.007a.5.5 0 0 1 -.281-.913l4.875-3.323-1.92 1.109a.5.5 0 0 1 -.535-.844l3.336-2.3-1.691.977a.5.5 0 0 1 -.53-.847l1.106-.751a.5.5 0 0 1 -.483-.863l5.456-4.195-4.222 2.436a.5.5 0 0 1 -.551-.832l2.933-2.212-2.225 1.284a.5.5 0 0 1 -.552-.831l1.535-1.167-.882.509a.5.5 0 0 1 -.571-.816l1.675-1.4-1.24.716a.5.5 0 0 1 -.562-.823l.261-.209a.514.514 0 0 1 -.441-.189.5.5 0 0 1 .032-.655l2.246-2.351-2.082 1.2a.5.5 0 0 1 -.591-.8l1.449-1.355-1.252.723a.5.5 0 0 1 -.585-.8l.942-.848-.874.5a.5.5 0 0 1 -.616-.773l1.914-2.059-2.073 1.2a.5.5 0 0 1 -.586-.8l1.852-1.676-2.115 1.221a.5.5 0 0 1 -.57-.816l2.772-2.314-3.136 1.811a.5.5 0 0 1 -.569-.819l3.725-3.084-4.452 2.572a.5.5 0 0 1 -.563-.824l3.414-2.73-4.115 2.374a.5.5 0 0 1 -.551-.832l2.326-1.751-2.988 1.725a.5.5 0 0 1 -.55-.833l2.329-1.743-3.026 1.746a.5.5 0 0 1 -.544-.836l1.554-1.132-2.326 1.342a.5.5 0 0 1 -.606-.784l1.648-1.669-2.917 1.684a.5.5 0 0 1 -.581-.808l1.037-.916-2.169 1.252a.5.5 0 0 1 -.607-.783l1.957-1.99-4.136 2.387a.5.5 0 0 1 -.557-.827l.228-.177-1.685.972a.5.5 0 0 1 -.585-.8l2.819-2.55-7.592 4.383a.5.5 0 0 1 -.5-.866l11.669-6.74a.5.5 0 0 1 .585.8l-2.816 2.555 3.941-2.275a.5.5 0 0 1 .556.827l-.228.178.99-.571a.5.5 0 0 1 .606.783l-1.956 1.99 3.3-1.9a.5.5 0 0 1 .581.807l-1.036.915 1.811-1.044a.5.5 0 0 1 .605.784l-1.648 1.67 7.285-4.213a.5.5 0 0 1 .544.837l-1.558 1.134 2.132-1.23a.5.5 0 0 1 .55.833l-2.328 1.746 2.818-1.626a.5.5 0 0 1 .551.832l-2.325 1.744 2.734-1.577a.5.5 0 0 1 .562.823l-3.415 2.731 3.917-2.261a.5.5 0 0 1 .569.818l-3.73 3.078 2.977-1.717a.5.5 0 0 1 .57.816l-2.775 2.315 1.157-.668a.5.5 0 0 1 .586.8l-1.843 1.676.877-.506a.5.5 0 0 1 .616.773l-1.913 2.06 2.116-1.22a.5.5 0 0 1 .585.8l-.94.848.913-.527a.5.5 0 0 1 .592.8l-1.448 1.354 1.323-.764a.5.5 0 0 1 .611.779l-2.252 2.351 2.251-1.3a.5.5 0 0 1 .563.824l-.028.021.524-.3a.5.5 0 0 1 .571.817l-1.677 1.4 2.724-1.572a.5.5 0 0 1 .553.831l-1.536 1.167 2.449-1.413a.5.5 0 0 1 .55.832l-2.931 2.211 3.717-2.146a.5.5 0 0 1 .554.829l-5.457 4.2 5.232-3.02a.5.5 0 0 1 .53.847l-1.036.7.554-.319a.5.5 0 0 1 .534.843l-3.321 2.296 2.724-1.573a.5.5 0 0 1 .531.846l-6.324 4.307a.5.5 0 0 1 .144.921l-9.8 5.658a.493.493 0 0 1 -.249.068z" fill="#ccd0da"/><path d="m29.234 59.407a.5.5 0 0 1 -.306-.894l.237-.185-1.526.881a.5.5 0 0 1 -.522-.853l7.231-4.686-7.921 4.572a.5.5 0 0 1 -.523-.851l8.821-5.746-8.891 5.132a.5.5 0 0 1 -.519-.854l6.406-4.074-6.389 3.688a.5.5 0 0 1 -.517-.855l4.9-3.079-4.844 2.797a.5.5 0 0 1 -.587-.8l3.187-2.911-4.208 2.428a.5.5 0 0 1 -.593-.8l1.962-1.847-3.414 1.97a.5.5 0 0 1 -.572-.815l.845-.708-1.555.9a.5.5 0 0 1 -.6-.791l1.545-1.492-2.56 1.478a.5.5 0 0 1 -.612-.778l1.752-1.838-7.5 4.33a.5.5 0 0 1 -.546-.836l1.8-1.319-2.326 1.343a.5.5 0 0 1 -.56-.825l3.339-2.632-4.008 2.309a.5.5 0 0 1 -.562-.824l3.462-2.77-4.05 2.337a.5.5 0 0 1 -.556-.828l2.758-2.128-2.946 1.7a.5.5 0 0 1 -.576-.812l4.053-3.479-2.521 1.456a.5.5 0 0 1 -.564-.822l1.363-1.096a.5.5 0 0 1 -.551-.827l.591-.494a.506.506 0 0 1 -.622-.162.5.5 0 0 1 .081-.668l.5-.433-.428.247a.5.5 0 0 1 -.608-.782l1.732-1.776-1.875 1.083a.5.5 0 0 1 -.612-.777l2.106-2.211-2.111 1.217a.5.5 0 0 1 -.576-.813l.711-.609-.513.3a.5.5 0 0 1 -.572-.815l.635-.533-.817.472a.5.5 0 0 1 -.564-.822l.592-.475-1.341.774a.5.5 0 0 1 -.55-.832l.306-.231-.988.57a.5.5 0 0 1 -.545-.837l.715-.52-1.461.843a.5.5 0 0 1 -.553-.83l3.597-2.745-4.241 2.447a.5.5 0 0 1 -.545-.837l4.032-2.944-3.684 2.127a.5.5 0 0 1 -.55-.832l6.446-4.839-5.9 3.406a.5.5 0 0 1 -.639-.742l1.063-1.316-.13.075a.5.5 0 0 1 -.5-.866l2.46-1.421a.5.5 0 0 1 .639.747l-1.064 1.312 10.754-6.208a.5.5 0 0 1 .55.832l-6.443 4.838 4.59-2.65a.5.5 0 0 1 .545.837l-4.032 2.943 2.91-1.68a.5.5 0 0 1 .552.83l-3.592 2.74 2.811-1.623a.5.5 0 0 1 .545.837l-.716.522.052-.03a.5.5 0 0 1 .55.832l-.388.292a.5.5 0 0 1 .461.868l-.592.475.139-.08a.5.5 0 0 1 .571.815l-.635.533.2-.115a.5.5 0 0 1 .575.813l-.714.612.459-.264a.5.5 0 0 1 .612.777l-2.106 2.212 2.01-1.16a.5.5 0 0 1 .608.782l-1.731 1.773 1.836-1.059a.5.5 0 0 1 .578.81l-.5.437.408-.235a.5.5 0 0 1 .57.816l-.58.485.621-.358a.5.5 0 0 1 .564.822l-1.367 1.098 1.53-.882a.5.5 0 0 1 .575.812l-4.052 3.47 4.779-2.759a.5.5 0 0 1 .556.828l-2.763 2.131 3.277-1.89a.5.5 0 0 1 .562.823l-3.461 2.77 4.311-2.488a.5.5 0 0 1 .559.825l-3.335 2.634 4.221-2.436a.5.5 0 0 1 .546.836l-1.8 1.318 2.606-1.5a.5.5 0 0 1 .612.777l-1.752 1.831 3.086-1.781a.5.5 0 0 1 .6.792l-1.549 1.495 2.986-1.723a.5.5 0 0 1 .571.815l-.844.708 2.166-1.25a.5.5 0 0 1 .592.8l-1.962 1.844 4.472-2.581a.5.5 0 0 1 .587.8l-3.186 2.911 23.761-13.715a.5.5 0 0 1 .517.855l-4.889 3.074 3.665-2.115a.5.5 0 0 1 .519.855l-6.418 4.082 4.823-2.785a.5.5 0 0 1 .523.852l-8.815 5.741 8.609-4.97a.5.5 0 0 1 .522.853l-15.481 10.035a.5.5 0 0 1 -.129.639l-.859.669a.5.5 0 0 1 .307.168.5.5 0 0 1 .014.638l-1.136 1.434a.5.5 0 0 1 .046.89l-1.463.844a.5.5 0 0 1 -.628-.105.5.5 0 0 1 -.015-.638l.792-1-3.133 1.809a.491.491 0 0 1 -.25.067z" fill="#ccd0da"/><path d="m24.455 7a.5.5 0 0 1 -.329-.876l2.347-2.057-.811.468a.5.5 0 0 1 -.64-.746l1.078-1.338a.49.49 0 0 1 -.211-.2.5.5 0 0 1 .182-.683l1.461-.842a.5.5 0 0 1 .64.746l-.69.854 2.898-1.672a.5.5 0 0 1 .579.809l-2.349 2.058 4.341-2.5a.5.5 0 1 1 .5.865l-8.746 5.044a.491.491 0 0 1 -.25.07z" fill="#ccd0da"/><path d="m7.042 24.358a.5.5 0 0 1 -.271-.92l11.676-7.557-10.354 5.977a.5.5 0 0 1 -.523-.852l10.53-6.827-8.8 5.08a.5.5 0 0 1 -.525-.851l10.474-6.886-9.778 5.646a.5.5 0 0 1 -.526-.85l.923-.61-.822.475a.5.5 0 0 1 -.547-.835l1.363-1.006-1.288.743a.5.5 0 0 1 -.55-.833l.942-.7-.844.486a.5.5 0 0 1 -.59-.8l2.773-2.566-2.272 1.308a.5.5 0 0 1 -.577-.81l2.608-2.254v-.01a.5.5 0 0 1 .182-.682l1.921-1.109a.5.5 0 0 1 .577.811l-.638.552 1.567-.9a.5.5 0 0 1 .59.8l-2.773 2.565 4.285-2.472a.5.5 0 0 1 .549.833l-.939.7 1.7-.98a.5.5 0 0 1 .547.835l-1.363 1.006 7.475-4.315a.5.5 0 0 1 .526.849l-.922.61 10.339-5.976a.5.5 0 0 1 .524.851l-10.472 6.884 10.607-6.123a.5.5 0 0 1 .522.852l-10.528 6.827 10.636-6.14a.5.5 0 0 1 .521.852l-19.136 12.386c.009.014.018.027.026.041a.5.5 0 0 1 -.183.683l-8.912 5.145a.494.494 0 0 1 -.25.067z" fill="#ccd0da"/><path d="m29.763 45.446a.5.5 0 0 1 -.292-.905l6.349-4.573-8.78 5.069a.5.5 0 0 1 -.54-.837l8.938-6.3-10.977 6.335a.5.5 0 0 1 -.529-.847l8.6-5.779-9.832 5.675a.5.5 0 0 1 -.523-.85l7.371-4.825-8.238 4.756a.5.5 0 0 1 -.522-.852l6.933-4.485-7.58 4.372a.5.5 0 0 1 -.524-.851l8.776-5.723-9.366 5.407a.5.5 0 0 1 -.522-.851l8.825-5.736-9.306 5.373a.5.5 0 0 1 -.521-.852l8.286-5.355-8.525 4.922a.5.5 0 0 1 -.528-.848l11.971-8-12.325 7.122a.5.5 0 0 1 -.526-.85l10.526-6.948-10.534 6.081a.5.5 0 0 1 -.53-.848l11.336-7.628-11.188 6.459a.5.5 0 0 1 -.527-.849l8.667-5.739-8.321 4.8a.5.5 0 0 1 -.522-.851l5.191-3.375-4.517 2.61a.5.5 0 0 1 -.519-.853l1.282-.817-.629.364a.5.5 0 0 1 -.528-.848l5.148-3.449-4.038 2.331a.5.5 0 0 1 -.536-.843l4.9-3.416-3.317 1.907a.5.5 0 0 1 -.575-.812l3.967-3.4a.508.508 0 0 1 -.551-.236.5.5 0 0 1 .183-.683l4.466-2.579a.5.5 0 0 1 .576.813l-3.888 3.331 8.739-5.045a.5.5 0 0 1 .536.843l-4.892 3.413 6.925-4a.5.5 0 0 1 .528.847l-5.147 3.448 6.47-3.735a.5.5 0 0 1 .52.854l-1.279.819 2.076-1.2a.5.5 0 0 1 .522.851l-5.195 3.377 6.04-3.486a.5.5 0 0 1 .675.17.5.5 0 0 1 -.149.68l-8.672 5.742 9.672-5.583a.5.5 0 0 1 .529.847l-11.332 7.63 12.395-7.152a.5.5 0 0 1 .525.85l-10.524 6.95 11.132-6.427a.5.5 0 0 1 .527.849l-11.966 7.987 12.542-7.241a.5.5 0 0 1 .522.852l-8.289 5.357 8.481-4.9a.5.5 0 0 1 .523.852l-8.833 5.739 8.875-5.123a.5.5 0 0 1 .523.852l-8.769 5.717 8.723-5.036a.5.5 0 0 1 .522.853l-6.94 4.489 6.628-3.82a.5.5 0 0 1 .523.85l-7.374 4.824 7.016-4.05a.5.5 0 0 1 .529.847l-8.593 5.777 7.883-4.548a.5.5 0 0 1 .538.842l-8.939 6.3 7.81-4.509a.5.5 0 0 1 .542.838l-6.347 4.57 4.6-2.656a.5.5 0 0 1 .574.814l-3.843 3.258a.509.509 0 0 1 .5.245.5.5 0 0 1 -.183.683l-4.468 2.579a.5.5 0 0 1 -.574-.815l3.683-3.121-8.407 4.854a.491.491 0 0 1 -.248.064z" fill="#faa116"/><g fill="#262626"><path d="m58.341 25.724c-.977-.479-2.049-.819-3.059-1.223a5.945 5.945 0 0 1 -1.345-.538c-.384-.3-.506-1.5-.7-2.056a24.264 24.264 0 0 0 -1.425-3.251c-.079-.148-.155-.306-.244-.449-.148-.213-.469-.657-.446-.481-.014-.11.155-.337.188-.44.368-1.13.957-2.231 1.425-3.324.436-1.019.819-1.9.119-2.936a15.631 15.631 0 0 0 -2.274-2.408 5.209 5.209 0 0 0 -2.207-1.572c-1.144-.252-2.266.415-3.283.851l-2.568 1.103a25.166 25.166 0 0 0 -5.04-2.219c-.155-.048-1.046-.194-1.033-.183-.056-.048-.065-.214-.108-.27a5.722 5.722 0 0 1 -.493-1.233c-.607-1.516-1.056-4.062-2.934-4.414a17.46 17.46 0 0 0 -5.308-.023 2.72 2.72 0 0 0 -2.214 1.6c-.655 1.4-1.165 2.882-1.731 4.321a26.445 26.445 0 0 0 -5.845 2.417c-1.349-.586-2.692-1.2-4.059-1.735a2.916 2.916 0 0 0 -2.583.1 14.6 14.6 0 0 0 -3.948 3.814c-1.176 1.555.3 3.663.955 5.179a6 6 0 0 1 .524 1.222c.013.086.129.2.123.288a6.948 6.948 0 0 1 -.595.952 25.1 25.1 0 0 0 -2.033 5.229l-2.979 1.192c-1.054.421-2.311.751-2.737 1.937a10.982 10.982 0 0 0 -.2 3.733c.026.989-.084 2.2.7 2.94a10.167 10.167 0 0 0 3.185 1.431 8.23 8.23 0 0 1 1.786.715c.21.16.181.057.3.255a16.851 16.851 0 0 1 .669 2.265 15.714 15.714 0 0 0 1.648 3.513c.242.345.244.129.23.445a3.272 3.272 0 0 1 -.355.829c-.5 1.177-1.056 2.344-1.516 3.539-.8 2.086 1.731 3.88 3.106 5.1a2.964 2.964 0 0 0 2.789 1 8.056 8.056 0 0 0 1.4-.543l3.252-1.396a25.166 25.166 0 0 0 5.04 2.219c.155.048 1.046.194 1.033.183.056.048.065.214.108.27a5.722 5.722 0 0 1 .493 1.233c.607 1.516 1.056 4.062 2.934 4.414a17.492 17.492 0 0 0 5.308.021 2.72 2.72 0 0 0 2.214-1.6c.655-1.4 1.165-2.882 1.731-4.321a26.445 26.445 0 0 0 5.845-2.417c1.349.586 2.692 1.2 4.059 1.735a2.916 2.916 0 0 0 2.583-.1 14.6 14.6 0 0 0 3.948-3.814c1.176-1.555-.3-3.663-.955-5.179a5.987 5.987 0 0 1 -.524-1.223c-.013-.085-.129-.2-.123-.288a7 7 0 0 1 .6-.951 25.1 25.1 0 0 0 2.028-5.227l4.326-1.731a.789.789 0 0 0 .324-.214c1.473-1 1.3-2.793 1.275-4.5-.02-1.481.124-3.046-1.384-3.786zm-5.43 9.654c-.693.392-.685 1.239-.916 1.961a23 23 0 0 1 -1.8 4.158c-.385.693-.549.8-.29 1.451.494 1.257 1.08 2.48 1.6 3.727a1.9 1.9 0 0 1 -.174 2.161 12.5 12.5 0 0 1 -2.931 2.926c-1.134.7-2.929-.591-3.984-1.043-.477-.2-.961-.469-1.457-.625-.743-.232-1.141.106-1.8.475a22.312 22.312 0 0 1 -4.217 1.809c-.678.211-1.525.223-1.922.858a23.048 23.048 0 0 0 -1.439 3.6 5.029 5.029 0 0 1 -.381.953c-.8 1.164-3.3.81-4.583.712a1.876 1.876 0 0 1 -1.9-1.191c-.282-.617-.507-1.267-.759-1.9-.314-.785-.569-2.191-1.271-2.685a11.045 11.045 0 0 0 -2.152-.644 22.728 22.728 0 0 1 -2.126-.877c-.866-.409-1.922-1.405-2.915-1.151a23.267 23.267 0 0 0 -3.183 1.357 8.685 8.685 0 0 1 -1.423.61c-1.093.234-2.614-1.676-3.3-2.406-.767-.812-1.651-1.555-1.269-2.76.177-.558.472-1.1.7-1.64q.412-.963.826-1.927a3.683 3.683 0 0 0 .451-1.064c0-.476-.671-1.289-.86-1.66-.267-.527-.515-1.065-.742-1.61q-.429-1.031-.76-2.1c-.131-.424-.186-1.186-.518-1.483a4.083 4.083 0 0 0 -1.048-.42l-2.168-.867c-.459-.184-.958-.333-1.4-.559-1.206-.62-1.049-1.992-1.067-3.186-.016-1.089-.3-3.2.741-3.869a6.942 6.942 0 0 1 1.145-.458 30.828 30.828 0 0 0 3.472-1.389c.661-.365.634-1.059.848-1.748a23.1 23.1 0 0 1 1.868-4.374c.381-.687.563-.75.318-1.386-.236-.614-.519-1.214-.778-1.814q-.408-.951-.815-1.9a1.923 1.923 0 0 1 .278-2.39 12.047 12.047 0 0 1 2.79-2.772c.814-.466 1.287-.113 2.031.206a33.165 33.165 0 0 0 3.443 1.476 1.633 1.633 0 0 0 1.466-.32 22.74 22.74 0 0 1 4.522-1.979c.63-.2 1.493-.223 1.895-.791a7.657 7.657 0 0 0 .6-1.5 16.916 16.916 0 0 1 1.317-3.253c.7-1.01 3.212-.639 4.306-.584 1.132.057 1.7.294 2.129 1.268.55 1.256 1.008 2.555 1.529 3.824.139.338.173.5.474.692a9.919 9.919 0 0 0 1.94.572 22.322 22.322 0 0 1 2.539 1.041c.773.376 1.724 1.278 2.62 1.09a6.414 6.414 0 0 0 1.134-.471l1.928-.826a7.414 7.414 0 0 1 1.639-.7c1.125-.147 2.446 1.512 3.16 2.256.826.862 1.789 1.677 1.394 2.955a38.069 38.069 0 0 1 -1.548 3.606 3.4 3.4 0 0 0 -.413.974c0 .425.483.95.68 1.322a23.113 23.113 0 0 1 1.089 2.361q.328.832.593 1.687c.141.455.162 1.149.518 1.483a4.073 4.073 0 0 0 1.145.458c1.143.458 2.373.833 3.472 1.389 1.04.526 1 1.434 1.047 2.474.045 1.077.433 4-.721 4.581l-3.22 1.288a11.591 11.591 0 0 0 -1.397.561z"/><path d="m51.544 18.166c.008.012.014.027.022.041.088.125.117.171-.022-.041z"/><path d="m36.734 11.575a20.149 20.149 0 0 0 -21.875 5.957 19.625 19.625 0 0 0 -1.759 22.662 19.812 19.812 0 0 0 36.635-10.244 19.671 19.671 0 0 0 -13.001-18.375zm-.334 35.754a18.409 18.409 0 0 1 -20.474-5.661 18.758 18.758 0 0 1 -1.715-21.024 18.251 18.251 0 0 1 19.289-8.732 18.518 18.518 0 0 1 2.9 35.417z"/><path d="m40.192 18.127a16.057 16.057 0 0 0 -17.737-1.577 15.6 15.6 0 0 0 -7.988 16.041 15.564 15.564 0 0 0 15.256 12.839 16.182 16.182 0 0 0 14.79-9.606 15.346 15.346 0 0 0 -4.321-17.697zm3.916 14.187a14.343 14.343 0 0 1 -13.831 12.256 14.694 14.694 0 0 1 -9.824-25.486 14.033 14.033 0 0 1 16.632-1.616 14.886 14.886 0 0 1 7.023 14.846z"/><path d="m34.683 29.7a2.027 2.027 0 0 1 -1.452-.574 1.918 1.918 0 0 1 -.5-1.5c.047-.438.329-1.144.8-1.3a1.135 1.135 0 0 1 .7.149 1.923 1.923 0 0 1 .776.72c.235.38 1.589-.161 1.449-.388a2.671 2.671 0 0 0 -3.252-.925 2.5 2.5 0 0 0 -1.925 2.418 2.2 2.2 0 0 0 2.038 2 2.023 2.023 0 0 1 1.452.574 1.918 1.918 0 0 1 .5 1.5c-.047.437-.329 1.144-.8 1.3a1.135 1.135 0 0 1 -.7-.149 1.923 1.923 0 0 1 -.776-.72c-.235-.38-1.589.161-1.449.388a2.671 2.671 0 0 0 3.252.925 2.5 2.5 0 0 0 1.925-2.418 2.2 2.2 0 0 0 -2.038-2z"/><path d="m29.285 25.6h-4a1.2 1.2 0 0 0 -.958.392c-.189.28.161.41.388.41h2.561v3.885 1.842a1.93 1.93 0 0 1 -.351 1.136 1.281 1.281 0 0 1 -.458.423c-.014.006-.037 0-.047 0 .1-.033-.021 0-.063 0a1.583 1.583 0 0 1 -.494-.116 1.916 1.916 0 0 1 -1.136-1.657c-.021-.368 0-.742 0-1.11 0-.259-1.448-.047-1.448.388 0 .369-.019.742 0 1.11a2.117 2.117 0 0 0 1.03 1.674 3.291 3.291 0 0 0 4.079-1 3.652 3.652 0 0 0 .336-2.091v-4.486a1.2 1.2 0 0 0 .949-.391c.189-.28-.161-.409-.388-.409z"/><path d="m21.493 25.926c.048-.352-.4-.4-.647-.39a2.01 2.01 0 0 0 -1.629.911 2.219 2.219 0 0 0 -.182 1.14c-.021.888-.733 1.533-.762 2.421a2.667 2.667 0 0 0 .334 1.321 3.085 3.085 0 0 1 .428 1.217 3.048 3.048 0 0 0 .093 1.061 1.509 1.509 0 0 0 1.369.86 1.042 1.042 0 0 0 .95-.419c.155-.307-.134-.5-.416-.515-.75-.04-.487-1.177-.582-1.65-.135-.669-.662-1.191-.714-1.886s.408-1.214.627-1.832a3.212 3.212 0 0 0 .131-1.089 1.331 1.331 0 0 1 .033-.4.729.729 0 0 1 .1-.194c.007-.01 0-.011 0-.017a.422.422 0 0 0 .058 0c.283-.017.764-.21.809-.539z"/><path d="m38.569 26.013c-.186.282.162.338.372.349.384.021.558.545.571.847a5.74 5.74 0 0 0 .039.908c.13.646.618 1.154.707 1.815a3.528 3.528 0 0 1 -.587 1.872 2.752 2.752 0 0 0 -.159 1.087 2.479 2.479 0 0 1 -.011.376.766.766 0 0 1 -.1.294.439.439 0 0 1 -.081.1 1.077 1.077 0 0 0 -.751.353c-.176.267.151.361.372.349a2.341 2.341 0 0 0 1.769-.784 1.853 1.853 0 0 0 .251-1.186c.016-.881.685-1.505.755-2.366.08-.983-.688-1.624-.751-2.559a3.04 3.04 0 0 0 -.093-1.074 1.422 1.422 0 0 0 -1.341-.756 1.249 1.249 0 0 0 -.962.375z"/></g></svg>