<svg viewBox="0 -4 511.99999 511" xmlns="http://www.w3.org/2000/svg"><path d="m509.3125 214.925781-87.078125-150.878906c-2.070313-3.589844-6.660156-4.816406-10.246094-2.746094-3.585937 2.070313-4.816406 6.65625-2.746093 10.242188l87.074218 150.875c.917969 1.597656.917969 3.574219 0 5.167969l-76.980468 133.394531c-2.585938-6.171875-7.53125-11.121094-13.703126-13.707031l66.972657-116.058594c2.203125-3.828125 2.203125-8.589844-.003907-12.429688l-102.90625-178.324218c-2.210937-3.84375-6.339843-6.230469-10.78125-6.230469h-205.824218c-4.441406 0-8.574219 2.386719-10.777344 6.222656l-102.917969 178.34375c-2.203125 3.828125-2.203125 8.589844.003907 12.425781l43.136718 74.75c2.070313 3.589844 6.65625 4.820313 10.242188 2.75 3.589844-2.070312 4.820312-6.65625 2.75-10.246094l-42.398438-73.472656 101.4375-175.773437h202.871094l101.433594 175.773437-69.414063 120.300782h-266.910156l-10.34375-17.929688c-2.074219-3.585938-6.660156-4.816406-10.246094-2.746094-3.589843 2.070313-4.820312 6.65625-2.75 10.246094l7.15625 12.398438c-6.171875 2.589843-11.117187 7.535156-13.703125 13.707031l-76.980468-133.394531c-.917969-1.59375-.917969-3.570313 0-5.164063l117.933593-204.34375c.917969-1.589844 2.628907-2.578125 4.464844-2.578125h235.84375c1.835937 0 3.546875.988281 4.464844 2.578125l15.8125 27.402344c2.070312 3.589843 6.660156 4.8125 10.246093 2.746093 3.585938-2.070312 4.816407-6.65625 2.746094-10.242187l-15.8125-27.398437c-3.585937-6.222657-10.273437-10.085938-17.457031-10.085938h-235.847656c-7.179688 0-13.871094 3.863281-17.453125 10.082031l-117.933594 204.34375c-3.582031 6.21875-3.582031 13.9375 0 20.15625l88.003906 152.5v91.335938c0 14.058593 11.4375 25.496093 25.5 25.496093h205.808594c4.144531 0 7.5-3.355468 7.5-7.5 0-4.140624-3.355469-7.5-7.5-7.5h-205.808594c-5.789062 0-10.496094-4.707031-10.496094-10.496093v-93.394531c0-.0625 0-.125 0-.1875v-14.535157c0-5.789062 4.707032-10.496093 10.496094-10.496093h1.957032c.027343 0 .050781.003906.078124.003906.023438 0 .050782-.003906.074219-.003906h275.398438c.023437 0 .050781.003906.078125.003906.023437 0 .046875-.003906.074218-.003906h1.957032c5.789062 0 10.5 4.707031 10.5 10.496093v14.535157c-.003906.0625 0 .125 0 .1875v93.394531c0 5.789062-4.710938 10.496093-10.5 10.496093h-40.808594c-4.140625 0-7.5 3.359376-7.5 7.5 0 4.144532 3.359375 7.5 7.5 7.5h40.808594c14.058594 0 25.5-11.4375 25.5-25.496093v-91.335938l88.003906-152.5c3.582031-6.214843 3.582031-13.9375 0-20.15625zm0 0"/><path d="m182.554688 423.058594c2.691406-3.796875 4.039062-8.804688 4.039062-15.027344 0-15.859375-8.988281-23.792969-26.964844-23.792969h-22.53125c-1.363281 0-2.5.453125-3.414062 1.367188-.910156.910156-1.363282 1.972656-1.363282 3.1875v73.992187c0 1.445313.738282 2.582032 2.21875 3.417969 1.480469.835937 3.203126 1.25 5.175782 1.25 2.050781 0 3.792968-.414063 5.234375-1.25 1.441406-.835937 2.164062-1.972656 2.164062-3.417969v-29.710937h9.558594l16.15625 31.417969c1.210937 2.355468 2.917969 3.53125 5.121094 3.53125 2.199219 0 4.285156-.8125 6.257812-2.449219 1.972657-1.628907 2.957031-3.394531 2.957031-5.292969 0-.757812-.191406-1.367188-.570312-1.820312l-14.90625-27.664063c4.550781-1.367187 8.175781-3.945313 10.867188-7.738281zm-22.925782-1.59375h-12.515625v-24.25h12.515625c8.117188 0 12.175782 4.0625 12.175782 12.183594 0 8.042968-4.0625 12.066406-12.175782 12.066406zm0 0"/><path d="m230.402344 444.230469c1.59375 0 2.882812-.074219 3.867187-.226563.988281-.148437 2.066407-.527344 3.246094-1.128906 1.171875-.597656 2.046875-1.632812 2.617187-3.097656.566407-1.46875.851563-3.324219.851563-5.582032 0-6.175781-2.292969-11.300781-6.882813-15.378906-4.589843-4.078125-10.109374-6.121094-16.558593-6.121094-6.902344 0-12.78125 2.242188-17.632813 6.71875-4.855468 4.476563-7.285156 9.828126-7.285156 16.050782v9.675781c0 6.984375 2.5625 12.621094 7.679688 16.90625 5.121093 4.289063 11.738281 6.429687 19.855468 6.429687 5.691406 0 10.449219-1.039062 14.28125-3.128906 3.828125-2.085937 5.746094-4.191406 5.746094-6.316406 0-1.367188-.53125-2.789062-1.59375-4.269531s-2.386719-2.222657-3.980469-2.222657c-.835937 0-2.65625.722657-5.460937 2.164063-2.808594 1.441406-5.652344 2.164063-8.535156 2.164063-4.019532 0-7.246094-1.007813-9.671876-3.019532-2.425781-2.007812-3.640624-4.644531-3.640624-7.910156v-1.707031zm-23.097656-11.628907c0-2.480468.984374-4.480468 2.957031-6.007812 1.972656-1.523438 4.285156-2.285156 6.941406-2.285156 2.804687 0 5.175781.78125 7.109375 2.339844 1.933594 1.558593 2.902344 3.578124 2.902344 6.058593 0 1.136719-.246094 1.898438-.738282 2.289063-.496093.390625-1.347656.582031-2.5625.582031h-16.613281v-2.976563zm0 0"/><path d="m280.523438 465.992188c1.25.976562 2.824218 1.460937 4.722656 1.460937 2.046875 0 3.753906-.453125 5.121094-1.363281 1.363281-.910156 2.046874-2.011719 2.046874-3.304688v-27.890625c0-6.375-2.011718-11.667969-6.03125-15.878906-4.019531-4.210937-10.164062-6.316406-18.433593-6.316406-4.324219 0-8.4375.816406-12.34375 2.445312-3.910157 1.632813-5.859375 3.550781-5.859375 5.75 0 1.820313.453125 3.492188 1.363281 5.007813.910156 1.519531 2.125 2.277344 3.640625 2.277344.378906 0 1.785156-.644532 4.210938-1.933594 2.429687-1.292969 5.347656-1.9375 8.761718-1.9375 3.414063 0 5.933594 1.074218 7.566406 3.21875 1.632813 2.148437 2.445313 4.664062 2.445313 7.554687v1.519531h-4.664063c-8.574218 0-15.132812 1.21875-19.683593 3.652344-4.550781 2.4375-6.828125 6.640625-6.828125 12.613282 0 5.089843 1.382812 8.960937 4.152344 11.621093 2.769531 2.660157 6.316406 3.988281 10.640624 3.988281 6.292969 0 12.058594-3.179687 17.292969-9.542968v3.527344c0 1.382812.625 2.558593 1.878907 3.53125zm-2.789063-19.492188c0 2.59375-1.136719 4.96875-3.414063 7.128906-2.273437 2.160156-4.625 3.238282-7.054687 3.238282-1.820313 0-3.28125-.484376-4.378906-1.457032-1.101563-.972656-1.648438-2.429687-1.648438-4.375 0-2.734375 1.308594-4.554687 3.921875-5.453125 2.617188-.902343 6.242188-1.351562 10.867188-1.351562h1.707031zm0 0"/><path d="m338.722656 452.199219c-.609375 0-2.011718.550781-4.210937 1.652343-2.199219 1.101563-4.589844 1.648438-7.167969 1.648438-7.433594 0-11.152344-3.464844-11.152344-10.394531v-9.039063c0-6.925781 3.679688-10.390625 11.039063-10.390625 2.578125 0 4.988281.511719 7.226562 1.535157 2.234375 1.023437 3.582031 1.535156 4.039063 1.535156 1.589844 0 2.957031-.796875 4.09375-2.390625 1.136718-1.59375 1.707031-3.1875 1.707031-4.78125 0-2.273438-1.746094-4.324219-5.234375-6.144531-3.488281-1.820313-7.8125-2.734376-12.96875-2.734376-8.195312 0-14.339844 2.148438-18.433594 6.433594-4.097656 4.289063-6.144531 9.921875-6.144531 16.90625v9.105469c0 7.058594 2.046875 12.710937 6.144531 16.960937 4.09375 4.25 10.277344 6.375 18.546875 6.375 5.15625 0 9.574219-.96875 13.253907-2.902343 3.679687-1.933594 5.519531-4.078125 5.519531-6.429688 0-1.597656-.589844-3.148437-1.765625-4.667969-1.175782-1.515624-2.671875-2.277343-4.492188-2.277343zm0 0"/><path d="m365.0625 391.417969c-1.480469-.839844-3.207031-1.257813-5.175781-1.257813-1.820313 0-3.492188.429688-5.007813 1.292969-1.519531.863281-2.273437 1.933594-2.273437 3.207031v54.566406c0 12.152344 7.015625 18.226563 21.046875 18.226563h4.441406c1.96875 0 3.507812-.632813 4.605469-1.902344 1.101562-1.273437 1.648437-2.820312 1.648437-4.644531 0-1.746094-.550781-3.253906-1.648437-4.523438-1.101563-1.269531-2.636719-1.90625-4.605469-1.90625h-4.441406c-2.351563 0-4-.433593-4.949219-1.300781-.949219-.867187-1.421875-2.347656-1.421875-4.445312v-23.738281h13.425781c1.140625 0 2.050781-.574219 2.730469-1.726563.683594-1.15625 1.023438-2.511719 1.023438-4.078125 0-1.5625-.339844-2.921875-1.023438-4.074219-.683594-1.152343-1.59375-1.730469-2.730469-1.730469h-13.425781v-18.84375c0-1.242187-.738281-2.28125-2.21875-3.121093zm0 0"/><path d="m256 225.972656c13.183594 0 23.90625-10.726562 23.90625-23.914062s-10.722656-23.914063-23.90625-23.914063-23.90625 10.726563-23.90625 23.914063 10.722656 23.914062 23.90625 23.914062zm0-32.828125c4.910156 0 8.90625 3.996094 8.90625 8.914063 0 4.914062-3.996094 8.914062-8.90625 8.914062s-8.90625-4-8.90625-8.914062c0-4.917969 3.996094-8.914063 8.90625-8.914063zm0 0"/><path d="m130.367188 202.058594c0 16.511718 13.917968 31.46875 39.1875 42.121094 2.609374 1.097656 5.324218 2.132812 8.117187 3.121093-.542969 2.910157-1.003906 5.785157-1.355469 8.59375-3.417968 27.21875 2.574219 46.757813 16.867188 55.011719 4.644531 2.683594 9.886718 4.011719 15.59375 4.011719 11.847656 0 25.714844-5.722657 40.464844-16.902344 2.253906-1.710937 4.507812-3.546875 6.757812-5.46875 2.25 1.921875 4.5 3.757813 6.757812 5.46875 14.75 11.183594 28.613282 16.902344 40.464844 16.902344 5.707032 0 10.949219-1.328125 15.59375-4.011719 14.292969-8.253906 20.28125-27.792969 16.867188-55.011719-.351563-2.808593-.8125-5.683593-1.355469-8.59375 2.792969-.988281 5.507813-2.023437 8.117187-3.121093 25.269532-10.652344 39.1875-25.609376 39.1875-42.121094 0-16.511719-13.917968-31.46875-39.1875-42.121094-2.609374-1.097656-5.324218-2.132812-8.117187-3.121094.542969-2.914062 1.003906-5.785156 1.355469-8.59375 3.414062-27.222656-2.574219-46.757812-16.867188-55.011718-14.292968-8.257813-34.203125-3.679688-56.058594 12.890624-2.257812 1.710938-4.511718 3.546876-6.757812 5.46875-2.25-1.921874-4.503906-3.757812-6.757812-5.46875-21.859376-16.570312-41.769532-21.148437-56.0625-12.890624-14.292969 8.253906-20.28125 27.789062-16.867188 55.011718.351562 2.808594.8125 5.679688 1.355469 8.59375-2.789063.988282-5.507813 2.023438-8.113281 3.121094-25.269532 10.652344-39.1875 25.609375-39.1875 42.121094zm70.316406 95.859375c-9.347656-5.402344-12.644532-22.621094-8.570313-46.214844 9.9375 2.59375 20.652344 4.550781 31.867188 5.839844 6.71875 9.070312 13.769531 17.375 20.984375 24.6875-1.59375 1.332031-3.191406 2.621093-4.785156 3.832031-16.492188 12.503906-30.886719 16.824219-39.496094 11.855469zm.050781-114.199219c-2.117187-5.75-3.894531-11.324219-5.347656-16.675781 5.355469-1.414063 11.070312-2.660157 17.105469-3.703125-2.078126 3.289062-4.113282 6.648437-6.089844 10.074218-1.972656 3.421876-3.863282 6.859376-5.667969 10.304688zm18.660156-2.808594c4.058594-7.027344 8.351563-13.75 12.816407-20.117187 7.578124-.667969 15.523437-1.027344 23.789062-1.027344s16.214844.363281 23.792969 1.027344c4.460937 6.367187 8.757812 13.089843 12.8125 20.117187 4.136719 7.171875 7.800781 14.242188 11.015625 21.148438-3.214844 6.90625-6.878906 13.976562-11.015625 21.148437-4.054688 7.027344-8.351563 13.753907-12.8125 20.117188-7.578125.667969-15.527344 1.027343-23.792969 1.027343s-16.210938-.363281-23.789062-1.027343c-4.464844-6.363281-8.757813-13.089844-12.816407-20.117188-4.136719-7.171875-7.800781-14.242187-11.015625-21.148437 3.214844-6.90625 6.878906-13.976563 11.015625-21.148438zm36.605469-48.863281c3.972656 4.003906 7.90625 8.328125 11.761719 12.960937-3.886719-.160156-7.808594-.242187-11.761719-.242187-3.949219 0-7.875.082031-11.757812.242187 3.851562-4.632812 7.785156-8.957031 11.757812-12.960937zm49.597656 41.367187c-1.976562-3.425781-4.011718-6.785156-6.089844-10.074218 6.035157 1.042968 11.753907 2.289062 17.105469 3.707031-1.449219 5.347656-3.230469 10.921875-5.34375 16.671875-1.808593-3.445312-3.699219-6.882812-5.671875-10.304688zm5.671875 46.984376c2.113281 5.753906 3.890625 11.328124 5.34375 16.675781-5.351562 1.414062-11.066406 2.660156-17.105469 3.703125 2.078126-3.289063 4.113282-6.648438 6.089844-10.074219 1.972656-3.421875 3.863282-6.859375 5.671875-10.304687zm-55.269531 51.671874c-3.972656-4.003906-7.90625-8.328124-11.757812-12.960937 3.886718.15625 7.808593.242187 11.757812.242187 3.953125 0 7.875-.085937 11.761719-.242187-3.855469 4.632813-7.789063 8.957031-11.761719 12.960937zm-49.597656-41.367187c1.976562 3.425781 4.011718 6.785156 6.089844 10.074219-6.035157-1.042969-11.75-2.289063-17.105469-3.707032 1.449219-5.347656 3.230469-10.917968 5.347656-16.671874 1.804687 3.445312 3.695313 6.882812 5.667969 10.304687zm104.914062 67.214844c-8.605468 4.96875-23.003906.648437-39.496094-11.855469-1.59375-1.210938-3.1875-2.5-4.785156-3.832031 7.210938-7.3125 14.265625-15.617188 20.984375-24.6875 11.21875-1.289063 21.929688-3.246094 31.867188-5.839844 4.078125 23.59375.777343 40.8125-8.570313 46.214844zm55.316406-95.859375c0 10.800781-13.253906 22.269531-35.710937 30.535156-2.726563-9.910156-6.386719-20.171875-10.882813-30.535156 4.496094-10.363282 8.15625-20.625 10.882813-30.535156 22.457031 8.265624 35.710937 19.734374 35.710937 30.535156zm-55.316406-95.859375c9.347656 5.402343 12.648438 22.621093 8.570313 46.214843-9.9375-2.59375-20.648438-4.550781-31.867188-5.839843-6.71875-9.070313-13.769531-17.375-20.984375-24.6875 1.597656-1.332031 3.191406-2.621094 4.785156-3.832031 16.496094-12.503907 30.890626-16.824219 39.496094-11.855469zm-110.632812 0c2.34375-1.351563 5.109375-2.015625 8.230468-2.015625 8.359376 0 19.257813 4.769531 31.265626 13.871094 1.59375 1.210937 3.191406 2.5 4.785156 3.832031-7.210938 7.3125-14.265625 15.617187-20.984375 24.6875-11.214844 1.289062-21.929688 3.246093-31.867188 5.839843-4.074219-23.59375-.777343-40.8125 8.570313-46.214843zm-8.722656 95.859375c-4.496094 10.363281-8.15625 20.625-10.882813 30.535156-22.453125-8.265625-35.707031-19.734375-35.707031-30.535156 0-10.800782 13.253906-22.269532 35.707031-30.535156 2.726563 9.910156 6.386719 20.171874 10.882813 30.535156zm0 0"/></svg>